<?xml version="1.0" encoding="utf-8"?>
<!-- Generator: Adobe Illustrator 16.0.0, SVG Export Plug-In . SVG Version: 6.00 Build 0)  -->
<svg xmlns="http://www.w3.org/2000/svg" xmlns:xlink="http://www.w3.org/1999/xlink" version="1.1" id="59149067_Outlined_2__grid" x="0px" y="0px" width="32px" height="32px" viewBox="0 0 32 32" style="enable-background:new 0 0 32 32;" xml:space="preserve">
<path d="M15.483,10.068l8.031,7.912l-0.706,0.817l-7.323-7.314l-7.268,7.275l-0.708-0.706L15.483,10.068z M28,15.5  C28,22.403,22.403,28,15.5,28C8.596,28,3,22.403,3,15.5S8.596,3,15.5,3C22.403,3,28,8.597,28,15.5z M26.995,15.5  c0-6.349-5.146-11.495-11.495-11.495S4.005,9.151,4.005,15.5S9.151,26.995,15.5,26.995S26.995,21.849,26.995,15.5z"/>
</svg>
