<?xml version="1.0" encoding="utf-8"?>
<!-- Generator: Adobe Illustrator 16.0.0, SVG Export Plug-In . SVG Version: 6.00 Build 0)  -->
<svg xmlns="http://www.w3.org/2000/svg" xmlns:xlink="http://www.w3.org/1999/xlink" version="1.1" id="59149061_Outlined_2__grid" x="0px" y="0px" width="32px" height="32px" viewBox="0 0 32 32" style="enable-background:new 0 0 32 32;" xml:space="preserve">
<path d="M22.783,12.241l0.708,0.706l-7.974,7.984l-8.03-7.912l0.706-0.817l7.322,7.314L22.783,12.241z M28,15.5  C28,22.403,22.403,28,15.5,28C8.596,28,3,22.403,3,15.5S8.596,3,15.5,3C22.403,3,28,8.597,28,15.5z M26.995,15.5  c0-6.349-5.146-11.495-11.495-11.495S4.005,9.151,4.005,15.5S9.151,26.995,15.5,26.995S26.995,21.849,26.995,15.5z"/>
</svg>
